<svg width="21" height="23" viewBox="0 0 21 23" fill="none" xmlns="http://www.w3.org/2000/svg">
<path d="M15 21.6846V17.8146C15.0375 17.3377 14.9731 16.8584 14.811 16.4084C14.6489 15.9583 14.3929 15.548 14.06 15.2046C17.2 14.8546 20.5 13.6646 20.5 8.20457C20.4997 6.8084 19.9627 5.46577 19 4.45457C19.4559 3.23308 19.4236 1.88292 18.91 0.684569C18.91 0.684569 17.73 0.334569 15 2.16457C12.708 1.54339 10.292 1.54339 8 2.16457C5.27 0.334569 4.09 0.684569 4.09 0.684569C3.57638 1.88292 3.54414 3.23308 4 4.45457C3.03013 5.47327 2.49252 6.82803 2.5 8.23457C2.5 13.6546 5.8 14.8446 8.94 15.2346C8.611 15.5745 8.35726 15.98 8.19531 16.4245C8.03335 16.869 7.96681 17.3426 8 17.8146V21.6846M8 18.6846C3 20.1846 3 16.1846 1 15.6846L8 18.6846Z" stroke="white" stroke-linecap="round" stroke-linejoin="round"/>
</svg>
