<svg width="24" height="22" viewBox="0 0 24 22" fill="none" xmlns="http://www.w3.org/2000/svg">
<path d="M22.65 13.0746L12 20.8146L1.34999 13.0746C1.20722 12.9696 1.10131 12.8221 1.04743 12.6533C0.993542 12.4844 0.99444 12.3029 1.04999 12.1346L2.26999 8.35456L4.70999 0.844562C4.73366 0.783369 4.77133 0.728571 4.81999 0.684562C4.89923 0.612183 5.00267 0.572052 5.10999 0.572052C5.21731 0.572052 5.32075 0.612183 5.39999 0.684562C5.45137 0.734227 5.48924 0.796181 5.50999 0.864562L7.94999 8.35456H16.05L18.49 0.844562C18.5137 0.783369 18.5513 0.728571 18.6 0.684562C18.6792 0.612183 18.7827 0.572052 18.89 0.572052C18.9973 0.572052 19.1008 0.612183 19.18 0.684562C19.2314 0.734227 19.2692 0.796181 19.29 0.864562L21.73 8.37456L23 12.1346C23.0505 12.308 23.0437 12.4932 22.9807 12.6625C22.9176 12.8319 22.8017 12.9764 22.65 13.0746V13.0746Z" stroke="white" stroke-linecap="round" stroke-linejoin="round"/>
</svg>
